<svg xmlns="http://www.w3.org/2000/svg" width="280" height="87.034"><path data-name="Path 2736" d="M34.913 50.819l-8.976-1.937c-7.537-1.54-12.547-2.985-12.547-8.247 0-5.415 4.662-8.743 11.505-8.743 6.6 0 11.01 1.937 14.729 5.514l7.638-5.509c-4.91-5.961-12.349-8.4-22.019-8.4-13.043 0-22.515 7.451-22.515 18.678 0 8.892 6.6 13.661 16.861 15.6l7.29 1.441c8.232 1.54 12.1 3.229 12.1 9.24 0 6.607-6.943 9.687-13.737 9.687-7.439 0-13.291-2.633-17.7-7.551L0 76.452c5.852 7.65 15.175 10.432 25.491 10.432 11.853 0 24.747-6.607 24.747-20.02-.001-8.941-5.853-14.107-15.325-16.045z" fill="#ff6166"/><path data-name="Path 2737" d="M82.82 23.745c-13.538 0-25.838 8.495-25.838 24.689v15c0 15.449 11.506 23.6 26.185 23.6 13.638 0 25.838-8.743 25.838-24.789V48.236c.049-15.4-11.357-24.491-26.185-24.491zM98.045 62.94c0 10.184-6.1 14.853-14.828 14.853-9.571 0-15.324-5.762-15.324-14.506v-15.6c0-9.836 6.348-14.754 14.977-14.754 9.671 0 15.175 5.763 15.175 14.257v15.748z" fill="#ff6166"/><path data-name="Path 2738" d="M157.308 33.432h-.347c-2.777-5.862-9.571-9.786-16.762-9.786-12.448 0-23.705 7.452-23.705 23.745v17.238c0 14.158 9.571 22.4 22.614 22.4a22.224 22.224 0 0018.3-10.929h.1v9.339h10.514V0h-10.764v33.432zm0 28.067c0 10.68-8.034 16.046-15.175 16.046-8.877 0-14.729-5.415-14.729-13.164V46.646c0-9.836 7.538-13.909 14.332-13.909 8.48 0 15.572 5.862 15.572 15.35V61.5z" fill="#ff6166"/><path data-name="Path 2739" d="M187.956 40.387c0-5.862 6.348-8.246 13.142-8.246 8.232 0 13.539 2.981 13.539 10.929v4.074h10.762v-5.117c0-14.009-11.357-18.331-24.052-18.331-11.257 0-23.209 4.421-23.209 17.138v1.689h9.819z" fill="#ff6166"/><path data-name="Path 2740" d="M265.172 58.519l-12.4 12.419 5.406 5.415 21.821-21.858-21.622-21.659-5.406 5.415 12.249 12.27h-67.445c-10.91 0-22.366 5.763-22.366 18.43 0 11.277 8.728 17.834 20.432 17.834 7.538 0 13.886-1.441 19.044-8.892h.248c.1 1.341.347 6.011.6 7.551h10.662c-.5-2.037-.942-11.028-.942-14.158v-9.488h-10.767v1.438c0 8.495-4.067 14.853-15.919 14.853-7.191 0-12.7-3.229-12.7-9.836 0-7.8 6.2-9.836 13.39-9.836h65.71z" fill="#ff6166"/></svg>